<svg xmlns="http://www.w3.org/2000/svg" viewBox="0 0 1080 720"><defs><style>.cls-1{fill:#3372b8;}.cls-2{fill:#fff;}</style></defs><g id="Livello_2" data-name="Livello 2"><g id="blue-white"><rect id="background" class="cls-1" width="1080" height="720"/><path class="cls-2" d="M299,289.56V336h0a46.2,46.2,0,1,0,24.42,40.75V297.89ZM277.25,398.48A21.78,21.78,0,1,1,299,376.7,21.78,21.78,0,0,1,277.25,398.48Z"/><path class="cls-2" d="M420,330.5V336a46.2,46.2,0,1,0,0,81.5v5.45h24.43V330.5Zm-21.78,68A21.78,21.78,0,1,1,420,376.7,21.78,21.78,0,0,1,398.2,398.48Z"/><path class="cls-2" d="M504.84,327.73a18.18,18.18,0,0,1,.47-2.45,24.63,24.63,0,0,1,1.69-4.7,26.65,26.65,0,0,1,2.26-3.77,25.27,25.27,0,0,1,3.49-4.23,22.37,22.37,0,0,1,3.85-2.92,23.09,23.09,0,0,1,6.31-3,20,20,0,0,1,7.52-.66l-.08-24.66c-3.06.18-5.62.48-7.53.75a51.74,51.74,0,0,0-5.74,1,42,42,0,0,0-14.88,6.77,49.78,49.78,0,0,0-11.2,9.89,46.18,46.18,0,0,0-5.45,8.37,48.7,48.7,0,0,0-4.33,12.9,59.23,59.23,0,0,0-1.2,9.45v92.4h24.42v-68h26V330.5H504.77A15.65,15.65,0,0,1,504.84,327.73Z"/><polygon class="cls-2" points="556.19 299.21 556.19 422.9 580.62 422.9 580.62 290.55 556.19 299.21"/><polygon class="cls-2" points="825.17 331.21 809.78 377.94 795.1 331.21 785.5 331.21 775.9 331.21 761.22 377.94 745.83 331.21 719.85 331.21 751.33 421.7 771.52 421.7 785.5 377.09 799.48 421.7 819.66 421.7 851.14 331.21 825.17 331.21"/><g id="icon"><path class="cls-2" d="M622.41,381.75a157.31,157.31,0,0,1,14.68,8.9c10.17,6.66,9.32,6.68,14.12,9.45,5.16,3,9.73,5.6,16.37,7.35A40.25,40.25,0,0,0,681.84,409a38.15,38.15,0,0,0,9.78-2.13,45,45,0,0,0,9.61-19.46,45.22,45.22,0,0,1-15.43,6.34c-2.83.58-13.34,2.46-24.29-1.69-2.42-.92-5-2.19-8.33-3.81-5-2.47-5.86-3.18-11.15-5.79-2.38-1.18-5.57-2.75-9.88-4.52-2-.83-5.25-2.15-9.6-3.53-2.88-.91-6.34-1.88-10.3-2.73a43,43,0,0,0-.45,5.32A111.49,111.49,0,0,1,622.41,381.75Z"/><path class="cls-2" d="M625.23,369.1c5.42,1.13,9.24,2.53,20,6.78,16.69,6.55,16.24,6.61,18.77,7.2,11.54,2.67,19.43,1.06,21.6.56,7.48-1.71,11.31-4.82,12.29-5.65a24.19,24.19,0,0,0,4.5-5.06,49.7,49.7,0,0,0-4.48-15.5c0-.05-.07-.15-.13-.25l-.18,1a41.68,41.68,0,0,1-15,11.43,42.6,42.6,0,0,1-23.58,3.11c-5.82-.83-10.42-2.71-15.53-4.8-6.59-2.71-8.64-4.45-14.4-6.36a55.7,55.7,0,0,0-13.29-2.65,52.74,52.74,0,0,0-2.66,8.64A77.44,77.44,0,0,1,625.23,369.1Z"/><path class="cls-2" d="M625,355.49a39.78,39.78,0,0,1,7.34,1.41c11.71,3.36,16.13,5.13,20.89,6.22,3.52.8,12.89,2.92,22.87-.43,8.33-2.79,16.53-9.21,16.16-12.84l-.26-.33c-1.81-2.23-14.23-16.8-35-17-22.49-.26-36.1,17.17-39.4,23a.41.41,0,0,0-.05.09A45,45,0,0,1,625,355.49Z"/><path class="cls-2" d="M678.35,417.33a39.66,39.66,0,0,1-15.25-1.7c-1-.33-3.15-1.05-10-4.8a158.38,158.38,0,0,1-18.35-11.15c-5.37-3.85-5.48-4.53-12.39-9.56-4.2-3.06-7.76-5.43-10.23-7a45.26,45.26,0,0,0,66.69,34.3Z"/></g></g></g></svg>