<svg xmlns="http://www.w3.org/2000/svg" viewBox="0 0 1080 720"><defs><style>.cls-1{fill:#fff;}.cls-2{fill:#3272b9;}</style></defs><g id="Livello_2" data-name="Livello 2"><g id="white-blu"><rect id="background" class="cls-1" width="1080" height="720"/><path class="cls-2" d="M295.83,287.9v46.39h0A46.2,46.2,0,1,0,320.26,375V296.23ZM274.05,396.82A21.78,21.78,0,1,1,295.83,375,21.78,21.78,0,0,1,274.05,396.82Z"/><path class="cls-2" d="M416.79,328.84v5.45a46.2,46.2,0,1,0,0,81.5v5.45h24.42v-92.4Zm-21.78,68A21.78,21.78,0,1,1,416.79,375,21.78,21.78,0,0,1,395,396.82Z"/><path class="cls-2" d="M501.64,326.07a19.9,19.9,0,0,1,.47-2.45,24.58,24.58,0,0,1,1.7-4.71,25.24,25.24,0,0,1,2.26-3.76,24.69,24.69,0,0,1,3.48-4.24,22.24,22.24,0,0,1,3.86-2.91,22.85,22.85,0,0,1,6.3-3,20.26,20.26,0,0,1,7.52-.66l-.08-24.65c-3.06.17-5.62.48-7.53.75a54.06,54.06,0,0,0-5.74,1,45.94,45.94,0,0,0-6.87,2.26,44.07,44.07,0,0,0-8,4.52,49.48,49.48,0,0,0-11.2,9.88,46.27,46.27,0,0,0-5.46,8.38A49,49,0,0,0,478,319.38a59.46,59.46,0,0,0-1.2,9.46v92.4h24.42v-68h26V328.84H501.57A15.63,15.63,0,0,1,501.64,326.07Z"/><polygon class="cls-2" points="553 297.55 553 421.24 577.42 421.24 577.42 288.89 553 297.55"/><polygon class="cls-2" points="821.97 329.55 806.58 376.28 791.9 329.55 782.3 329.55 772.7 329.55 758.02 376.28 742.63 329.55 716.65 329.55 748.14 420.04 768.32 420.04 782.3 375.43 796.28 420.04 816.47 420.04 847.95 329.55 821.97 329.55"/><g id="icon"><path class="cls-2" d="M675.15,415.67A39.87,39.87,0,0,1,659.9,414c-1-.33-3.15-1.06-10-4.8A160.65,160.65,0,0,1,631.53,398c-5.37-3.85-5.48-4.53-12.39-9.57-4.19-3.05-7.76-5.42-10.22-7a45.25,45.25,0,0,0,66.68,34.3Z"/><path class="cls-2" d="M621.75,353.83a39.78,39.78,0,0,1,7.34,1.41c11.72,3.35,16.14,5.13,20.9,6.21,3.52.8,12.88,2.93,22.87-.42,8.33-2.79,16.52-9.21,16.15-12.84l-.26-.33c-1.81-2.23-14.22-16.81-35-17-22.49-.26-36.1,17.17-39.4,23l0,.09A45,45,0,0,1,621.75,353.83Z"/><path class="cls-2" d="M622,367.44c5.42,1.13,9.25,2.53,20.05,6.77,16.69,6.55,16.25,6.62,18.78,7.2,11.53,2.68,19.42,1.07,21.6.57,7.48-1.71,11.3-4.82,12.28-5.65a24.58,24.58,0,0,0,4.51-5.06,49.75,49.75,0,0,0-4.49-15.5l-.12-.25-.18,1a41.85,41.85,0,0,1-15,11.44,42.44,42.44,0,0,1-23.57,3.1c-5.83-.82-10.43-2.7-15.53-4.8-6.6-2.7-8.65-4.44-14.4-6.35a55.27,55.27,0,0,0-13.3-2.65,53.13,53.13,0,0,0-2.65,8.63A78.86,78.86,0,0,1,622,367.44Z"/><path class="cls-2" d="M619.21,380.09A156,156,0,0,1,633.89,389c10.18,6.67,9.32,6.68,14.12,9.46,5.16,3,9.73,5.59,16.38,7.34a40.41,40.41,0,0,0,14.26,1.56,38.35,38.35,0,0,0,9.78-2.13,45.08,45.08,0,0,0,9.6-19.47,45.21,45.21,0,0,1-15.43,6.35c-2.83.58-13.34,2.45-24.28-1.69-2.43-.92-5-2.2-8.33-3.82-5-2.46-5.87-3.17-11.16-5.78-2.38-1.18-5.56-2.75-9.88-4.52-2-.83-5.24-2.15-9.6-3.53-2.88-.92-6.34-1.88-10.29-2.73a42.81,42.81,0,0,0-.46,5.32A109,109,0,0,1,619.21,380.09Z"/></g></g></g></svg>