<svg xmlns="http://www.w3.org/2000/svg" viewBox="0 0 620.1 141.65"><defs><style>.cls-1{fill:#fff;}</style></defs><g id="Livello_2" data-name="Livello 2"><g id="blue-white"><path class="cls-1" d="M68,8.24V54.62h0A46.2,46.2,0,1,0,92.4,95.37V16.56ZM46.2,117.15A21.78,21.78,0,1,1,68,95.37,21.78,21.78,0,0,1,46.2,117.15Z"/><path class="cls-1" d="M188.93,49.17v5.45a46.21,46.21,0,1,0,0,81.51v5.45h24.43V49.17Zm-21.77,68a21.78,21.78,0,1,1,21.77-21.78A21.78,21.78,0,0,1,167.16,117.15Z"/><path class="cls-1" d="M273.79,46.4a18.18,18.18,0,0,1,.47-2.45,24.08,24.08,0,0,1,1.7-4.7,25.79,25.79,0,0,1,2.25-3.77,25.27,25.27,0,0,1,3.49-4.23,22,22,0,0,1,3.86-2.92,22.87,22.87,0,0,1,6.3-3,20.26,20.26,0,0,1,7.52-.66L299.3,0c-3.06.18-5.62.48-7.53.75a56.84,56.84,0,0,0-5.74,1,42,42,0,0,0-14.87,6.77A49.35,49.35,0,0,0,260,18.45a46.12,46.12,0,0,0-5.46,8.37,48.81,48.81,0,0,0-4.33,12.9,59.23,59.23,0,0,0-1.2,9.45v92.41h24.42v-68h26V49.17H273.72A15.65,15.65,0,0,1,273.79,46.4Z"/><polygon class="cls-1" points="325.14 17.88 325.14 141.58 349.57 141.58 349.57 9.22 325.14 17.88"/><polygon class="cls-1" points="594.12 49.88 578.73 96.61 564.05 49.88 554.45 49.88 544.85 49.88 530.17 96.61 514.78 49.88 488.8 49.88 520.28 140.38 540.47 140.38 554.45 95.76 568.43 140.38 588.61 140.38 620.1 49.88 594.12 49.88"/><g id="icon"><path class="cls-1" d="M391.36,100.42a157.31,157.31,0,0,1,14.68,8.9c10.18,6.67,9.32,6.68,14.12,9.46,5.16,3,9.73,5.59,16.38,7.34a40.19,40.19,0,0,0,14.25,1.55,37.5,37.5,0,0,0,9.79-2.13,45.1,45.1,0,0,0,9.6-19.46,45.22,45.22,0,0,1-15.43,6.34c-2.83.58-13.34,2.46-24.29-1.69-2.42-.92-5-2.19-8.32-3.81-5-2.47-5.87-3.18-11.16-5.79-2.38-1.18-5.56-2.74-9.88-4.52-2-.83-5.24-2.15-9.6-3.53-2.88-.91-6.34-1.88-10.3-2.73a43,43,0,0,0-.45,5.32A111.49,111.49,0,0,1,391.36,100.42Z"/><path class="cls-1" d="M394.18,87.77c5.42,1.13,9.25,2.54,20.05,6.78,16.69,6.55,16.25,6.61,18.78,7.2,11.53,2.67,19.42,1.06,21.6.56,7.47-1.71,11.3-4.81,12.28-5.65a24.58,24.58,0,0,0,4.51-5.06,49.86,49.86,0,0,0-4.49-15.5l-.13-.25-.17,1a41.73,41.73,0,0,1-15,11.43,42.6,42.6,0,0,1-23.58,3.11c-5.82-.83-10.42-2.71-15.52-4.8-6.6-2.71-8.65-4.45-14.4-6.35a55.87,55.87,0,0,0-13.3-2.66,53.08,53.08,0,0,0-2.66,8.64A77.44,77.44,0,0,1,394.18,87.77Z"/><path class="cls-1" d="M393.9,74.16a38.71,38.71,0,0,1,7.34,1.42c11.72,3.35,16.14,5.13,20.9,6.21,3.51.8,12.88,2.93,22.87-.43,8.32-2.79,16.52-9.21,16.15-12.84l-.26-.33c-1.81-2.22-14.22-16.8-34.95-17-22.49-.25-36.1,17.17-39.4,23a.56.56,0,0,0-.05.08A45,45,0,0,1,393.9,74.16Z"/><path class="cls-1" d="M447.3,136a39.83,39.83,0,0,1-15.25-1.69c-1-.34-3.15-1.06-10-4.8a158.56,158.56,0,0,1-18.35-11.16c-5.37-3.85-5.48-4.53-12.39-9.56-4.19-3.05-7.76-5.43-10.23-7a45.24,45.24,0,0,0,66.69,34.3Z"/></g></g></g></svg>